<?xml version="1.0" encoding="UTF-8" standalone="no"?>
<!-- Created with Inkscape (http://www.inkscape.org/) -->

<svg
   width="92.133675mm"
   height="55.430008mm"
   viewBox="0 0 92.133671 55.43"
   version="1.1"
   id="svg1"
   xmlns="http://www.w3.org/2000/svg"
   xmlns:svg="http://www.w3.org/2000/svg">
  <defs
     id="defs1" />
  <g
     id="g19"
     transform="translate(-12.359395,-134.82976)">
    <ellipse
       style="fill:#1a1a1a;fill-opacity:0.1;stroke:none;stroke-width:0.3;stroke-linecap:round;stroke-linejoin:round;stroke-dasharray:none;stroke-dashoffset:9.52442;stroke-opacity:1"
       id="path10"
       cx="57.986382"
       cy="184.43378"
       rx="44.272984"
       ry="5.0268798" />
    <ellipse
       style="fill:#1a1a1a;fill-opacity:0.3;stroke:none;stroke-width:0.3;stroke-linecap:round;stroke-linejoin:round;stroke-dasharray:none;stroke-dashoffset:9.52442;stroke-opacity:1"
       id="path11"
       cx="21.034376"
       cy="183.97942"
       rx="2.8442707"
       ry="0.90950572" />
    <ellipse
       style="fill:#1a1a1a;fill-opacity:0.3;stroke:none;stroke-width:0.3;stroke-linecap:round;stroke-linejoin:round;stroke-dasharray:none;stroke-dashoffset:9.52442;stroke-opacity:1"
       id="path11-6"
       cx="37.761887"
       cy="184.25731"
       rx="2.8442707"
       ry="0.90950572" />
    <ellipse
       style="fill:#1a1a1a;fill-opacity:0.3;stroke:none;stroke-width:0.3;stroke-linecap:round;stroke-linejoin:round;stroke-dasharray:none;stroke-dashoffset:9.52442;stroke-opacity:1"
       id="path11-64"
       cx="82.036316"
       cy="184.25877"
       rx="2.8442707"
       ry="0.90950572" />
    <ellipse
       style="fill:#1a1a1a;fill-opacity:0.3;stroke:none;stroke-width:0.3;stroke-linecap:round;stroke-linejoin:round;stroke-dasharray:none;stroke-dashoffset:9.52442;stroke-opacity:1"
       id="path11-64-1"
       cx="93.067184"
       cy="184.59648"
       rx="2.8442707"
       ry="0.90950572" />
    <path
       style="fill:#b2b2b2;fill-opacity:1;stroke:#000000;stroke-width:0.4;stroke-linecap:round;stroke-linejoin:round;stroke-dasharray:none;stroke-dashoffset:9.52442;stroke-opacity:1"
       d="m 38.313501,184.05731 -12.049794,-47.40469 -0.794494,0.13242 11.784966,47.27227 z"
       id="path1-7" />
    <path
       style="fill:#b2b2b2;fill-opacity:1;stroke:#000000;stroke-width:0.4;stroke-linecap:round;stroke-linejoin:round;stroke-dasharray:none;stroke-dashoffset:9.52442;stroke-opacity:1"
       d="m 20.391961,184.05731 12.049794,-47.40469 0.794494,0.13242 -11.784966,47.27227 z"
       id="path1" />
    <path
       style="fill:#b2b2b2;fill-opacity:1;stroke:#000000;stroke-width:0.6;stroke-linecap:round;stroke-linejoin:round;stroke-dasharray:none;stroke-dashoffset:9.52442;stroke-opacity:1"
       d="m 31.691423,148.27386 c 0,-2.59776 4.284107,0.8172 7.426646,2.74542 3.14254,1.92823 12.004881,5.74699 18.184579,7.79355 6.179698,2.04656 19.555621,6.89923 23.026706,6.89923 3.471087,0 3.951962,0 3.951962,0.70495 0,0 -1.974839,4.31846 -4.14521,4.84709 -2.17037,0.52864 -39.505782,-5.8945 -48.444683,-22.99024 z"
       id="path6" />
    <path
       style="fill:#b2b2b2;fill-opacity:1;stroke:#000000;stroke-width:0.4;stroke-linecap:round;stroke-linejoin:round;stroke-dasharray:none;stroke-dashoffset:9.52442;stroke-opacity:1"
       d="m 81.640419,184.05878 12.049794,-47.40469 0.794494,0.13242 -11.784966,47.27227 z"
       id="path1-3" />
    <path
       style="fill:#b2b2b2;fill-opacity:1;stroke:#000000;stroke-width:0.4;stroke-linecap:round;stroke-linejoin:round;stroke-dasharray:none;stroke-dashoffset:9.52442;stroke-opacity:1"
       d="m 93.549175,184.7489 -3.634992,-48.77693 -0.805419,-0.008 3.397183,48.60053 z"
       id="path1-7-4" />
    <path
       style="fill:#1a1a1a;fill-opacity:1;stroke:#000000;stroke-width:0.3;stroke-linecap:round;stroke-linejoin:round;stroke-dasharray:none;stroke-dashoffset:9.52442;stroke-opacity:1"
       d="M 81.440424,167.12196 92.736457,144.7091"
       id="path9" />
    <path
       style="fill:#1a1a1a;fill-opacity:1;stroke:#000000;stroke-width:0.3;stroke-linecap:round;stroke-linejoin:round;stroke-dasharray:none;stroke-dashoffset:9.52442;stroke-opacity:1"
       d="m 83.745777,167.59539 6.695526,-24.63202"
       id="path9-2" />
    <g
       id="g2">
      <path
         style="display:inline;fill:#fafafa;fill-opacity:1;stroke:none;stroke-width:0.600001;stroke-linecap:round;stroke-dasharray:none;stroke-opacity:1"
         d="m 38.919358,151.15203 c -0.476659,1.51495 -0.908824,3.21537 -0.19393,4.73222 0.183347,0.58305 0.635114,1.10242 0.707328,1.70607 -0.378221,0.40199 -1.038347,0.14495 -1.458522,0.51078 -0.697482,0.40317 -0.0222,0.32729 0.370191,1.21436 0.240373,0.68024 0.801302,1.03951 1.209502,1.03951 0.815924,-0.0494 0.433751,0.11605 1.192762,-0.0806 2.766471,4.34828 6.10815,8.43462 10.309627,11.47428 1.820453,1.33685 3.844421,2.39365 6.016727,3.0263 3.186633,1.09111 6.651205,1.5737 9.986215,0.95827 0.986828,-0.23927 2.057807,-0.48252 2.830789,-1.17885 0.160896,-0.25388 0.494883,-0.63413 0.378331,-0.90291 -0.434943,0.0102 -0.957804,0.37834 -1.374618,0.14509 -0.260012,-0.4044 0.425176,-0.5006 0.683814,-0.55902 0.5666,-0.12189 1.18911,-0.41972 1.280754,-1.06144 0.02166,-0.25805 0.329984,-0.64572 0.11957,-0.85311 -0.526136,0.1428 -1.107112,0.60098 -1.668773,0.35102 -0.235422,-0.35309 0.332293,-0.50219 0.575743,-0.53006 0.459978,-0.18289 1.090566,-0.39449 1.259568,-0.90352 0.05493,-0.71728 -0.565036,-1.46164 -1.323773,-1.28185 -1.952427,0.24577 -3.908052,0.66222 -5.883953,0.39309 -2.459957,-0.22291 -4.78648,-1.14053 -7.137007,-1.87436 -0.311602,-0.17504 -0.98247,-0.16628 -0.967838,-0.6352 0.183565,-0.34257 0.637665,0.0406 0.911992,0.055 3.21259,1.08748 6.547025,2.31335 9.998839,1.92158 1.284456,-0.0377 2.558227,-0.58232 3.842953,-0.32289 1.066423,0.31446 1.275643,1.61933 1.053736,2.56363 -0.184404,1.15425 -0.672032,2.25889 -0.935598,3.38845 1.356965,0.20005 2.804606,0.074 4.104607,-0.39219 0.264294,0.001 0.297903,-0.5176 0.551194,-0.24128 0.384407,0.51242 1.16939,0.53297 1.580471,0.0416 1.015171,-1.12642 1.429435,-2.64151 2.019201,-4.00781 0.189218,-0.54034 0.429647,-1.08588 0.536058,-1.64074 -0.505392,-0.0251 -0.783266,0.60422 -1.269388,0.69087 -0.411593,-0.0583 -0.121081,-0.55581 0.102028,-0.68707 0.370434,-0.39136 0.934069,-0.44238 1.368448,-0.70076 0.159517,-0.31594 0.39613,-0.75099 0.241451,-1.10054 -0.414013,-0.17919 -0.883105,0.21249 -1.178057,0.47943 -0.140824,0.37605 -0.776396,0.0537 -0.470636,-0.27259 0.402652,-0.60231 1.156582,-0.77747 1.811035,-0.92862 0.235434,-0.35791 -0.253226,-0.76326 -0.614928,-0.69838 -0.797869,-0.058 -1.416012,0.50193 -2.115572,0.75868 -0.706943,0.0398 -0.828807,-0.85961 -1.080861,-1.3477 -0.306101,-0.76001 -0.854685,-1.37164 -1.401078,-1.96052 -0.215454,-0.21695 0.05506,-0.60415 0.314522,-0.39283 0.975074,0.76941 1.581742,1.91234 1.975997,3.07338 0.506074,-0.0157 0.990095,-0.45318 1.514367,-0.57619 0.216577,-0.11919 0.924812,-0.0504 0.505135,-0.38009 -0.414149,-0.30228 0.181378,-0.67746 0.375165,-0.91304 0.225738,-0.15897 0.05263,-0.36549 -0.173246,-0.33001 -0.252717,-0.41224 0.307092,-0.83469 0.646251,-1.00103 0.204686,-0.0234 0.469678,-0.40498 0.117128,-0.37318 -0.761683,0.11305 -1.336674,0.63677 -1.915983,1.09216 -0.545965,0.18278 -0.904316,-0.48992 -1.2507,-0.79721 -2.049831,-2.18409 -4.485041,-3.96327 -6.895258,-5.72407 -1.988763,-1.36046 -4.400162,-1.90251 -6.7345,-2.33516 -3.671417,-0.56186 -7.413493,-0.59767 -11.112383,-0.34549 -0.447988,0.35891 -0.482527,1.09123 -0.927729,1.44908 -0.373792,0.0641 -0.377062,-0.34605 -0.183615,-0.55474 0.700565,-1.69109 1.651611,-3.2971 2.262247,-5.0236 -0.258941,-0.22365 -0.695522,-0.0814 -1.008682,-0.23282 -1.297539,-0.24305 -1.911907,-1.62662 -1.888477,-2.84616 -0.05814,-0.46754 0.14227,-0.98968 0.0017,-1.41648 -3.539547,-0.49597 -7.289744,0.81358 -9.779722,3.37136 -0.772277,0.86075 -1.507679,1.83297 -1.810102,2.96807 z m -0.574933,8.37473 c -0.433194,-0.44314 0.632426,-0.72445 1.247049,-0.59534 0.403133,0.26835 -0.01633,0.72318 -0.31414,0.87548 -0.35764,0.25908 -0.433538,0.37061 -0.763839,-0.0495 -0.0046,-0.0672 0.331406,0.28131 0.331406,0.28131 z m 7.737234,-13.01452 c 0.157987,-0.4094 0.800693,-0.55614 0.984044,-0.0761 0.377706,0.53419 -0.615419,1.21402 -0.917325,0.58834 -0.08481,-0.15187 -0.12997,-0.34394 -0.06672,-0.51225 z m -0.005,4.44522 c 0.212833,-0.61031 1.246218,-0.31017 1.038599,0.30988 -0.118644,0.7927 -1.366839,0.407 -1.038599,-0.30988 z"
         id="path13-8-4-0" />
      <path
         style="display:inline;fill:#fafafa;fill-opacity:1;stroke:none;stroke-width:0.600001;stroke-linecap:round;stroke-dasharray:none;stroke-opacity:1"
         d="m 39.668991,146.70774 c 0.05607,0.36225 0.25234,0.80777 0.578232,0.9937 0.41761,-0.19081 0.840538,-0.53299 1.058895,-0.94037 -0.103131,-0.45776 -0.799522,-0.61624 -1.18577,-0.40537 -0.158162,0.0927 -0.37121,0.17495 -0.451358,0.35205 z"
         id="path15-1-3-1" />
      <path
         style="display:inline;fill:#fafafa;fill-opacity:1;stroke:none;stroke-width:0.600001;stroke-linecap:round;stroke-dasharray:none;stroke-opacity:1"
         d="m 71.734985,156.48418 c 0.179854,0.45147 0.765758,0.6315 1.095509,0.97096 0.449583,0.30323 0.840196,0.73978 1.317658,0.97806 0.200695,-0.26805 -0.0663,-0.68536 -0.09925,-0.99346 -0.129455,-0.67106 -0.804923,-1.02111 -1.443794,-1.00437 -0.250819,0.0257 -0.680334,-0.14552 -0.870118,0.0488 z"
         id="path14-1-2-87" />
      <path
         style="fill:none;stroke:#000000;stroke-width:0.600001;stroke-linecap:round;stroke-linejoin:round"
         d="m 56.080589,166.91414 c 10.349053,4.10135 12.309474,1.28286 14.391652,1.81559 2.082187,0.53274 0.185141,5.22638 -0.324171,5.99112 -0.509303,0.76473 -5.787539,3.18569 -14.530312,-0.13749 -8.742764,-3.32318 -14.996815,-13.99624 -14.996815,-13.99624 0,0 -0.300055,0.24443 -1.358623,-1.41867 -1.058565,-1.66313 -0.789033,-2.25188 0.01911,-1.46372 -0.834298,-1.66316 -1.873984,-2.94702 -0.681011,-6.57724 1.395881,-4.24755 6.732796,-7.38845 12.171198,-6.5784 5.438393,0.81004 3.71343,3.30629 0.485501,10.09209"
         id="path1-3-2-6" />
      <path
         style="fill:none;stroke:#000000;stroke-width:0.600001;stroke-linecap:round"
         d="m 52.0563,153.16604 c 0,0 12.898021,-1.17093 18.376366,2.83172 5.478354,4.00264 6.613738,5.42533 7.181432,6.13667 0.567691,0.71135 0.639517,0.0718 1.153823,-0.29383 0.5143,-0.36566 2.25924,-1.2656 1.961955,0.49433 -0.297286,1.75993 -0.729779,2.28421 -0.729779,2.28421"
         id="path2-0-1-0" />
      <path
         style="fill:none;stroke:#000000;stroke-width:0.600001;stroke-linecap:round"
         d="m 70.426926,174.67745 c 1.777224,0.41706 4.494909,-0.12712 4.82231,-0.57923 0,0 1.457645,1.65814 2.893769,-1.59284 1.436132,-3.25098 2.050681,-5.17452 2.271147,-6.694 0.220475,-1.51948 -1.544014,-1.31345 -2.760102,-0.48435 -1.136112,0.77459 -0.414054,-1.19223 -2.593032,-3.08082"
         id="path3-7-1-09" />
      <path
         style="fill:none;stroke:#000000;stroke-width:0.600001"
         d="m 40.388378,148.23382 c 0,0 -1.737941,-1.30474 -0.561939,-2.05326 1.176014,-0.74853 2.18311,0.79112 2.18311,0.79112"
         id="path5-2-1-56" />
      <path
         style="fill:none;stroke:#000000;stroke-width:0.600001;stroke-linecap:round"
         d="m 51.011311,144.60122 c -0.56964,0.007 -1.301631,4.87068 2.76268,4.25535"
         id="path6-3-2-28" />
      <ellipse
         style="fill:#000000;fill-opacity:1;stroke:none;stroke-width:0.600001"
         id="path7-0-8-3-9"
         cx="-38.59837"
         cy="159.58659"
         rx="0.4962422"
         ry="0.51608217"
         transform="rotate(-27.281954)" />
      <path
         style="fill:none;stroke:#000000;stroke-width:0.600001;stroke-linecap:round"
         d="m 69.098563,173.61418 c 1.043743,-0.0413 1.769308,-0.6995 1.769308,-0.6995"
         id="path8-5-0-3" />
      <path
         style="fill:none;stroke:#000000;stroke-width:0.600001;stroke-linecap:round"
         d="m 69.49536,171.49248 c 0.931567,0.0166 1.767544,-0.84061 1.767544,-0.84061"
         id="path9-6-4-90" />
      <path
         style="fill:none;stroke:#000000;stroke-width:0.600001;stroke-linecap:round"
         d="m 78.265736,168.6733 c 0.526627,-0.76862 1.57037,-0.80991 1.57037,-0.80991"
         id="path10-1-5-5" />
      <path
         style="fill:none;stroke:#000000;stroke-width:0.600001;stroke-linecap:round"
         d="m 78.458985,166.82196 c 0.526624,-0.76861 1.57037,-0.8099 1.57037,-0.8099"
         id="path10-2-7-7-6" />
      <path
         style="fill:none;stroke:#000000;stroke-width:0.600001;stroke-linecap:round"
         d="m 79.305324,163.92857 c 0.37764,-0.61372 1.066849,-0.68728 1.066849,-0.68728"
         id="path10-2-6-92-0-36" />
      <path
         style="fill:none;stroke:#000000;stroke-width:0.600001;stroke-linecap:round"
         d="m 79.554894,162.68756 c 0.377639,-0.61372 1.066848,-0.68728 1.066848,-0.68728"
         id="path10-2-6-9-4-1-3" />
      <path
         style="fill:none;stroke:#000000;stroke-width:0.600001"
         d="m 74.59293,159.34913 c -0.151007,-3.04622 -0.521731,-3.35204 -3.850145,-3.19749"
         id="path11-8-8-0" />
      <path
         style="fill:#000000;fill-opacity:0.198454;stroke:none;stroke-width:0.1;stroke-linecap:round;stroke-dasharray:none;stroke-opacity:1"
         d="m 71.221856,171.86009 c -0.237369,0.91975 -0.570791,1.84409 -0.637232,2.79177 0.297956,0.13152 0.858313,0.23477 1.099628,-0.0777 0.16123,-1.06259 0.139206,-2.1815 -0.05725,-3.23757 -0.261552,-0.30061 -0.331302,0.42466 -0.405141,0.52351 z"
         id="path21-3-6-8" />
      <path
         style="fill:#000000;fill-opacity:0.198454;stroke:none;stroke-width:0.0999998;stroke-linecap:round;stroke-dasharray:none;stroke-opacity:1"
         d="m 76.442995,163.8406 c 0.07249,0.24817 0.254744,0.47435 0.362271,0.71607 0.124166,0.2018 0.177661,0.43717 0.345036,0.61883 0.168139,0.0849 0.357352,-0.007 0.515951,-0.0417 0.325113,-0.11005 0.651179,-0.22551 0.951583,-0.37398 0.08617,-0.13696 -0.152869,-0.17147 -0.25782,-0.20941 -0.589272,-0.14973 -1.134538,-0.44309 -1.675662,-0.71757 -0.07976,-0.0431 -0.211382,-0.10533 -0.241356,0.008 z"
         id="path22-9-3-4" />
      <path
         style="fill:#000000;fill-opacity:0.198454;stroke:none;stroke-width:0.0999997;stroke-linecap:round;stroke-dasharray:none;stroke-opacity:1"
         d="m 72.129172,157.10485 c 0.01163,0.18016 0.264924,0.25519 0.38629,0.3746 0.57232,0.39105 1.091297,0.85331 1.705406,1.18955 0.19293,0.0478 0.200626,-0.18213 0.215738,-0.29975 -0.0076,-0.33119 -0.190752,-0.64839 -0.264459,-0.97431 -0.01936,-0.13293 -0.166222,-0.18776 -0.297256,-0.18021 -0.552066,-0.0582 -1.105491,-0.15233 -1.656733,-0.19007 -0.04468,0.008 -0.08193,0.0389 -0.08894,0.0802 z"
         id="path23-6-0-0" />
      <path
         style="fill:#000000;fill-opacity:0.198454;stroke:none;stroke-width:0.0999999;stroke-linecap:round;stroke-dasharray:none;stroke-opacity:1"
         d="m 51.390732,154.26627 c -0.1294,0.37874 0.367264,0.37863 0.53223,0.14779 0.430719,-0.39003 0.974013,-0.72944 1.254408,-1.24382 -0.07054,-0.38345 -0.606502,-0.15535 -0.874225,-0.1558 -0.486671,0.20549 -0.707411,0.80407 -0.91241,1.25183 z"
         id="path24-4-9-4" />
      <path
         style="fill:#000000;fill-opacity:1;stroke:none;stroke-width:0.1;stroke-linecap:round;stroke-linejoin:round;stroke-dasharray:none;stroke-opacity:1"
         d="m 50.903401,145.25685 c -0.218581,1.0302 -0.06477,2.27079 0.78731,2.983 0.578467,0.40966 1.357164,0.50554 2.033656,0.3597 0.211516,-0.6489 0.392199,-1.35935 0.248572,-2.04207 -0.176626,-0.74945 -0.912146,-1.19978 -1.615461,-1.37194 -0.433541,-0.10815 -0.861474,-0.33756 -1.317342,-0.29854 -0.129786,0.0541 -0.08578,0.25864 -0.136744,0.36985 z"
         id="path25-7-6-6" />
      <path
         style="fill:none;fill-opacity:0.242424;stroke:#000000;stroke-width:0.4;stroke-linecap:round;stroke-linejoin:round;stroke-dasharray:none;stroke-dashoffset:9.52442;stroke-opacity:1"
         d="m 46.416772,151.78051 c 0,0 0.655929,-0.59161 0.416604,-1.52245"
         id="path2" />
      <path
         style="fill:none;fill-opacity:0.242424;stroke:#000000;stroke-width:0.4;stroke-linecap:round;stroke-linejoin:round;stroke-dasharray:none;stroke-dashoffset:9.52442;stroke-opacity:1"
         d="m 46.570336,147.37583 c 0,0 0.414504,-0.78002 -0.128271,-1.5732"
         id="path2-7" />
    </g>
    <g
       id="g8"
       transform="rotate(-91.486198,69.857133,121.45104)">
      <path
         style="fill:none;stroke:#000000;stroke-width:0.600001;stroke-linecap:round;stroke-linejoin:round"
         d="m 27.259719,104.57954 c -0.75725,11.10633 2.52417,12.116 2.65038,14.26154 0.12621,2.14555 -4.922126,1.76692 -5.805586,1.5145 -0.883457,-0.25241 -4.795918,-4.5435 -4.291084,-13.88292"
         id="path1-3-2-67" />
      <path
         style="fill:none;stroke:#000000;stroke-width:0.600001;stroke-linecap:round"
         d="m 24.839287,119.01906 c 0.356971,0.98167 1.204782,1.4725 1.204782,1.4725"
         id="path8-5-0-4" />
      <path
         style="fill:none;stroke:#000000;stroke-width:0.600001;stroke-linecap:round"
         d="m 26.981109,118.75133 c 0.26773,0.89242 1.33865,1.42788 1.33865,1.42788"
         id="path9-6-4-4" />
    </g>
    <path
       style="fill:#d9d9d9;fill-opacity:1;stroke:#000000;stroke-width:0.6;stroke-linecap:round;stroke-linejoin:round;stroke-dasharray:none;stroke-dashoffset:9.52442;stroke-opacity:1"
       d="m 31.891356,148.47373 c 0,0 12.490106,27.74142 30.654672,28.11588 18.164564,0.37445 19.569041,-5.7018 21.535308,-10.1726 0,0 -9.456809,4.42861 -23.501575,-0.70495 C 46.534994,160.5785 36.968606,155.09532 31.891356,148.47373 Z"
       id="path5" />
    <path
       style="fill:#1a1a1a;fill-opacity:1;stroke:#000000;stroke-width:0.3;stroke-linecap:round;stroke-linejoin:round;stroke-dasharray:none;stroke-dashoffset:9.52442;stroke-opacity:1"
       d="m 27.936637,145.55764 3.654822,2.61628"
       id="path8" />
    <path
       style="fill:#1a1a1a;fill-opacity:1;stroke:#000000;stroke-width:0.3;stroke-linecap:round;stroke-linejoin:round;stroke-dasharray:none;stroke-dashoffset:9.52442;stroke-opacity:1"
       d="m 30.064048,145.55764 2.65475,1.86031"
       id="path8-1" />
  </g>
  <path
     style="fill:#1a1a1a;fill-opacity:0.1;stroke:none;stroke-width:0.2;stroke-linecap:round;stroke-linejoin:round;stroke-dashoffset:9.52442"
     d="m 26.31053,23.789979 c 0,0 7.490542,8.94365 8.895019,8.94365 1.404477,0 3.838903,-0.33703 3.838903,-0.33703 0,0 -1.687369,1.68464 0.352452,3.12551 2.039821,1.44087 6.370984,4.21206 8.355303,3.56231 1.984319,-0.64975 4.213429,-1.2995 4.681588,-1.2995 0.468159,0 5.511202,-0.80272 5.190027,0.64975 -0.321175,1.45247 4.432943,-0.24256 5.44636,-0.24256 1.013418,0 5.598464,-4.3121 4.70653,-5.45848 -0.891937,-1.14638 0,0 0,0 l 4.014859,-0.74657 c 0,0 -3.418737,11.42422 -21.417675,9.77279 C 33.277778,40.191259 26.31053,23.789979 26.31053,23.789979 Z"
     id="path19" />
  <path
     id="rect19"
     style="fill:#3f3f3f;stroke:#000000;stroke-width:0.2;stroke-linecap:round;stroke-linejoin:round;stroke-dashoffset:9.52442"
     d="m 37.732613,48.969989 4.362821,-0.0425 c 0.276981,-0.003 0.414188,0.17849 0.5,0.37716 l 0.595869,1.37951 c 0.08581,0.19867 -0.223,0.37716 -0.5,0.37716 h -5.554559 c -0.277,0 -0.588269,-0.1791 -0.5,-0.37716 l 0.595869,-1.33697 c 0.08827,-0.19805 0.223025,-0.37437 0.5,-0.37716 z" />
  <path
     id="rect19-4"
     style="fill:#3f3f3f;stroke:#000000;stroke-width:0.2;stroke-linecap:round;stroke-linejoin:round;stroke-dashoffset:9.52442"
     d="m 37.732613,48.768529 4.362821,-0.0425 c 0.276981,-0.003 0.414188,0.17849 0.5,0.37716 l 0.595869,1.37951 c 0.08581,0.19867 -0.223,0.37716 -0.5,0.37716 h -5.554559 c -0.277,0 -0.588269,-0.1791 -0.5,-0.37716 l 0.595869,-1.33697 c 0.08827,-0.19805 0.223025,-0.37437 0.5,-0.37716 z" />
</svg>
