<?xml version="1.0" encoding="UTF-8" standalone="no"?>
<!-- Created with Inkscape (http://www.inkscape.org/) -->

<svg
   width="89.999992mm"
   height="64.089996mm"
   viewBox="0 0 89.999988 64.089988"
   version="1.1"
   id="svg1"
   xmlns:xlink="http://www.w3.org/1999/xlink"
   xmlns="http://www.w3.org/2000/svg"
   xmlns:svg="http://www.w3.org/2000/svg">
  <defs
     id="defs1">
    <linearGradient
       id="linearGradient39">
      <stop
         style="stop-color:#ffffff;stop-opacity:0.80312502;"
         offset="0"
         id="stop39" />
      <stop
         style="stop-color:#ffffff;stop-opacity:0;"
         offset="1"
         id="stop40" />
    </linearGradient>
    <linearGradient
       xlink:href="#linearGradient39"
       id="linearGradient40"
       x1="78.173523"
       y1="343.19089"
       x2="78.463432"
       y2="361.88684"
       gradientUnits="userSpaceOnUse"
       gradientTransform="rotate(16.480091,1234.9234,145.62948)" />
  </defs>
  <path
     id="path30"
     style="fill:#000000;fill-opacity:0.1;stroke:none;stroke-width:0.299999;stroke-linecap:round;stroke-linejoin:round;stroke-dasharray:none;stroke-dashoffset:9.52442;stroke-opacity:0.504394"
     d="m 32.51241,40.986512 a 32.246944,7.8329616 0 0 0 -32.24712769,7.83311 32.246944,7.8329616 0 0 0 4.88600679,4.14497 24.909676,7.8329616 0 0 0 -1.677417,2.82567 24.909676,7.8329616 0 0 0 24.9101079,7.83311 24.909676,7.8329616 0 0 0 24.90959,-7.83311 24.909676,7.8329616 0 0 0 -0.181901,-0.94465 32.246944,7.8329616 0 0 0 11.647351,-6.02599 32.246944,7.8329616 0 0 0 -32.24661,-7.83311 z" />
  <path
     id="path44"
     style="fill:#000000;fill-opacity:0.3;stroke:none;stroke-width:0.4;stroke-linecap:round;stroke-linejoin:round;stroke-dasharray:none;stroke-dashoffset:9.52442;stroke-opacity:1"
     d="m 22.953815,45.873932 a 18.095421,4.501688 0 0 0 -18.0955366,4.50153 18.095421,4.501688 0 0 0 8.6289316,3.82923 18.095421,4.501688 0 0 0 -3.36672,2.60191 18.095421,4.501688 0 0 0 18.095019,4.50153 18.095421,4.501688 0 0 0 18.095537,-4.50153 18.095421,4.501688 0 0 0 -1.3224,-1.68259 18.095421,4.501688 0 0 0 11.800313,-4.21215 18.095421,4.501688 0 0 0 -18.095536,-4.50205 18.095421,4.501688 0 0 0 -5.670972,0.23668 18.095421,4.501688 0 0 0 -10.068636,-0.77256 z" />
  <path
     id="path14-5"
     style="fill:#a2a2a2;fill-opacity:1;stroke:#000000;stroke-width:0.6;stroke-linecap:round;stroke-linejoin:round;stroke-dasharray:none;stroke-dashoffset:9.52442;stroke-opacity:1"
     d="m 23.64837,26.433062 a 3.3616245,4.5270703 25.680679 0 1 1.656252,0.71306 3.3616245,4.5270703 25.680679 0 1 0.971172,2.27932 3.8512513,4.8734609 48.371501 0 1 5.136979,-0.22658 3.8512513,4.8734609 48.371501 0 1 1.149359,1.92791 3.7712665,4.804474 52.605744 0 1 3.509142,0.514 3.7712665,4.804474 52.605744 0 1 0.06318,5.50726 5.8665897,4.1775078 0 0 1 3.382783,3.78479 5.8665897,4.1775078 0 0 1 -1.05353,2.38879 4.4237774,3.1408237 0 0 1 1.053521,2.03481 4.4237774,3.1408237 0 0 1 -4.423514,3.14088 4.4237774,3.1408237 0 0 1 -0.22363,-0.007 4.4237774,3.1408237 0 0 1 0.01704,0.19331 4.4237774,3.1408237 0 0 1 -4.423515,3.14088 4.4237774,3.1408237 0 0 1 -1.359501,-0.15169 15.1231,11.327725 0 0 1 -6.943024,1.26415 15.1231,11.327725 0 0 1 -5.347124,-0.73161 4.4237774,3.1408237 0 0 1 -1.651977,0.22658 4.4237774,3.1408237 0 0 1 -4.39939,-2.87587 4.4237774,3.1408237 0 0 1 -1.9423384,0.32515 4.4237774,3.1408237 0 0 1 -4.4242191,-3.14089 4.4237774,3.1408237 0 0 1 1.4624341,-2.33307 4.8582691,3.1324553 21.879483 0 1 -1.0613271,-2.31199 4.8582691,3.1324553 21.879483 0 1 1.5618221,-2.09626 3.0542382,1.7373478 2.313894 0 1 -1.3949991,-0.91787 3.0542382,1.7373478 2.313894 0 1 1.3495601,-2.13918 4.0698843,2.822496 42.769043 0 1 0.10508,-1.93495 4.0698843,2.822496 42.769043 0 1 1.341748,-1.09326 2.9475843,1.8002111 32.853167 0 1 -0.223625,-1.00045 2.9475843,1.8002111 32.853167 0 1 2.8098634,-0.89162 2.9475843,1.8002111 32.853167 0 1 0.117843,0.048 4.5270703,3.3616245 64.319321 0 1 0.895205,-1.72438 4.5270703,3.3616245 64.319321 0 1 4.040876,0.13186 4.5270703,3.3616245 64.319321 0 1 0.927862,-3.33035 4.5270703,3.3616245 64.319321 0 1 4.488124,0.5172 3.3616245,4.5270703 25.680679 0 1 2.831867,-1.23024 z" />
  <path
     id="path14-5-6"
     style="fill:#7c7c7c;fill-opacity:1;stroke:#000000;stroke-width:0.6;stroke-linecap:round;stroke-linejoin:round;stroke-dasharray:none;stroke-dashoffset:9.52442;stroke-opacity:1"
     d="m 42.506029,27.609102 a 3.3616245,4.5270703 25.680679 0 1 1.656252,0.71306 3.3616245,4.5270703 25.680679 0 1 0.971172,2.27932 3.8512513,4.8734609 48.371501 0 1 5.136979,-0.22658 3.8512513,4.8734609 48.371501 0 1 1.149359,1.92791 3.7712665,4.804474 52.605744 0 1 3.509142,0.514 3.7712665,4.804474 52.605744 0 1 0.06318,5.50726 5.8665897,4.1775078 0 0 1 3.382783,3.78479 5.8665897,4.1775078 0 0 1 -1.05353,2.38879 4.4237774,3.1408237 0 0 1 1.053521,2.03481 4.4237774,3.1408237 0 0 1 -4.423514,3.14088 4.4237774,3.1408237 0 0 1 -0.22363,-0.007 4.4237774,3.1408237 0 0 1 0.01704,0.19331 4.4237774,3.1408237 0 0 1 -4.423515,3.14088 4.4237774,3.1408237 0 0 1 -1.359501,-0.15169 15.1231,11.327725 0 0 1 -6.943024,1.26415 15.1231,11.327725 0 0 1 -5.347124,-0.73161 4.4237774,3.1408237 0 0 1 -1.651977,0.22658 4.4237774,3.1408237 0 0 1 -4.39939,-2.87587 4.4237774,3.1408237 0 0 1 -1.942338,0.32515 4.4237774,3.1408237 0 0 1 -4.42422,-3.14089 4.4237774,3.1408237 0 0 1 1.462434,-2.33307 4.8582691,3.1324553 21.879483 0 1 -1.061327,-2.31199 4.8582691,3.1324553 21.879483 0 1 1.561822,-2.09626 3.0542382,1.7373478 2.313894 0 1 -1.394999,-0.91787 3.0542382,1.7373478 2.313894 0 1 1.34956,-2.13918 4.0698843,2.822496 42.769043 0 1 0.10508,-1.93495 4.0698843,2.822496 42.769043 0 1 1.341749,-1.09326 2.9475843,1.8002111 32.853167 0 1 -0.223625,-1.00045 2.9475843,1.8002111 32.853167 0 1 2.809863,-0.89162 2.9475843,1.8002111 32.853167 0 1 0.117843,0.048 4.5270703,3.3616245 64.319321 0 1 0.895205,-1.72438 4.5270703,3.3616245 64.319321 0 1 4.040876,0.13186 4.5270703,3.3616245 64.319321 0 1 0.927862,-3.33035 4.5270703,3.3616245 64.319321 0 1 4.488124,0.5172 3.3616245,4.5270703 25.680679 0 1 2.831867,-1.23024 z" />
  <path
     style="display:inline;fill:#fafafa;fill-opacity:1;stroke:none;stroke-width:0.600001;stroke-linecap:round;stroke-dasharray:none;stroke-opacity:1"
     d="m 33.138232,12.399822 c -1.58815,0.007 -3.33944,0.11283 -4.56677,1.25544 -0.49959,0.35209 -0.85684,0.94049 -1.40988,1.19299 -0.49803,-0.23794 -0.45408,-0.94498 -0.93043,-1.23389 -0.59631,-0.5417 -1.61199,-1.13824 -2.33757,-0.4945 -0.57482,0.43599 -0.63611,1.25087 -0.26487,1.83855 0.29539,0.76218 0.9577,1.29513 1.37605,1.95828 -3.300091,3.95857 -6.175623,8.38535 -7.792446,13.3126 -0.719416,2.14095 -1.110123,4.39053 -1.051658,6.65233 -0.06956,3.36754 0.525126,6.81464 2.126318,9.80416 0.528246,0.8672 1.08589,1.81335 1.984434,2.33775 0.290801,0.076 0.754663,0.27842 0.975219,0.0856 -0.14211,-0.4112 -0.651885,-0.79723 -0.556545,-1.26526 0.306086,-0.37075 0.606247,0.25266 0.740608,0.48125 0.288539,0.50263 0.7617,1.00497 1.40087,0.89697 0.2524,-0.0579 0.71551,0.11782 0.84903,-0.14573 -0.29615,-0.45772 -0.9094,-0.8717 -0.84223,-1.48279 0.26469,-0.33171 0.57949,0.1637 0.68013,0.38712 0.3142,0.3825 0.70767,0.91878 1.24399,0.92485 0.69997,-0.16597 1.22035,-0.98306 0.81818,-1.65109 -0.8283,-1.78502 -1.82016,-3.52114 -2.16513,-5.48522 -0.53631,-2.41111 -0.37025,-4.90654 -0.38657,-7.3689 0.0719,-0.35009 -0.14061,-0.98647 0.31052,-1.11524 0.38219,0.0706 0.1554,0.61977 0.22519,0.88546 -0.0582,3.39116 -0.21114,6.9405 1.21255,10.10935 0.4268,1.21206 1.33325,2.25966 1.47711,3.5624 0.025,1.11154 -1.1543,1.70795 -2.12134,1.78395 -1.15562,0.17562 -2.356262,0.0473 -3.512457,0.14 0.222409,1.35348 0.783082,2.69408 1.622757,3.79055 0.0793,0.25212 0.58371,0.12625 0.39758,0.45162 -0.37113,0.52212 -0.1518,1.27612 0.44134,1.51817 1.38194,0.62421 2.95124,0.55773 4.43222,0.70371 0.57229,0.0158 1.16512,0.0788 1.72605,0.0113 -0.12986,-0.48907 -0.81393,-0.56223 -1.04442,-0.99892 -0.0697,-0.40982 0.4926,-0.28449 0.68553,-0.11191 0.48553,0.23376 0.70567,0.75513 1.08399,1.09027 0.3495,0.0558 0.83592,0.14879 1.12181,-0.10493 0.0447,-0.44891 -0.47116,-0.77655 -0.81521,-0.97627 -0.40107,-0.0197 -0.28739,-0.72324 0.11643,-0.53127 0.69628,0.20025 1.09258,0.86511 1.43573,1.44252 0.41259,0.11534 0.64999,-0.4735 0.47811,-0.7983 -0.18755,-0.77768 -0.90906,-1.19609 -1.36653,-1.78433 -0.25308,-0.66129 0.5666,-1.0511 0.95483,-1.43974 0.63081,-0.52288 1.04647,-1.23158 1.44113,-1.93127 0.14109,-0.27126 0.59225,-0.13142 0.46992,0.18005 -0.43617,1.16298 -1.34025,2.0887 -2.32624,2.8176 0.16894,0.4773 0.73301,0.80521 1.00973,1.26718 0.17945,0.17003 0.32951,0.86559 0.51579,0.3655 0.16191,-0.4865 0.70053,-0.0334 0.98391,0.0795 0.22013,0.16665 0.36417,-0.0611 0.26163,-0.26546 0.31578,-0.36619 0.88856,0.0385 1.15022,0.31095 0.0846,0.18785 0.52871,0.32415 0.39113,-0.002 -0.33949,-0.69115 -1.01336,-1.07948 -1.62345,-1.49272 -0.34027,-0.46444 0.19147,-1.01052 0.37876,-1.43399 1.45666,-2.61729 2.41033,-5.47845 3.3541,-8.31021 0.69068,-2.30846 0.47315,-4.77044 0.17486,-7.12572 -0.58212,-3.66826 -1.68685,-7.24373 -3.05276,-10.69042 -0.47822,-0.31751 -1.18632,-0.12754 -1.66268,-0.44272 -0.17483,-0.33655 0.21488,-0.46449 0.47254,-0.34373 1.82408,0.15268 3.64335,0.56985 5.47379,0.62609 0.13423,-0.31472 -0.13414,-0.6873 -0.0852,-1.03169 -0.16336,-1.30996 0.9676,-2.31625 2.13643,-2.66508 0.42767,-0.19767 0.98603,-0.16567 1.3498,-0.42949 -0.60476,-3.52259 -2.9935,-6.69636 -6.18774,-8.28981 -1.05495,-0.47369 -2.20486,-0.87833 -3.37815,-0.82096 z m -8.45541,1.70642 c 0.60908,0.1143 1.18551,0.67658 1.24958,1.30134 -0.13294,0.46568 -0.69385,0.20453 -0.92956,-0.0328 -0.35563,-0.26183 -0.81801,-0.79925 -0.51837,-1.24173 0.0626,-0.0248 0.13155,-0.0312 0.19835,-0.0268 z m 15.05484,3.7041 c 0.43806,0.0259 0.77344,0.59346 0.37196,0.91421 -0.3939,0.52236 -1.34373,-0.21676 -0.83961,-0.69476 0.11886,-0.12701 0.28808,-0.22848 0.46765,-0.21945 z m -4.23589,1.34805 c 0.64613,0.017 0.67472,1.09271 0.0209,1.08364 -0.79121,0.12823 -0.80367,-1.17814 -0.0209,-1.08364 z"
     id="path13-8-4-2" />
  <path
     style="display:inline;fill:#fafafa;fill-opacity:1;stroke:none;stroke-width:0.600001;stroke-linecap:round;stroke-dasharray:none;stroke-opacity:1"
     d="m 37.599848,11.761352 c -0.328004,0.16366 -0.692653,0.4862 -0.770591,0.85322 0.308856,0.33973 0.763516,0.63846 1.218025,0.72248 0.404659,-0.23755 0.343691,-0.94914 0.02527,-1.25289 -0.136398,-0.12246 -0.27962,-0.30036 -0.472708,-0.32281 z"
     id="path15-1-3-4" />
  <path
     style="fill:none;stroke:#000000;stroke-width:0.600001;stroke-linecap:round;stroke-linejoin:round"
     d="m 23.346522,33.543952 c 4.298866,4.36484 13.743814,3.43059 13.870024,5.57613 0.12621,2.14555 0.01842,1.86055 -1.135281,3.66803 -0.494347,0.77449 -20.685866,1.98838 -20.181033,-7.35104 0.504833,-9.33941 8.76831,-18.54497 8.76831,-18.54497 0,0 -2.45789,-2.2794 -1.19581,-3.7939 1.26209,-1.5145 4.03867,0.63104 3.53384,1.64071 1.33037,-1.30088 2.23692,-2.68197 6.058,-2.65038 4.47088,0.037 9.087,4.16488 9.97046,9.59184 0.88346,5.42695 -2.01934,4.5435 -9.46563,3.53383"
     id="path1-3-2-3" />
  <path
     style="fill:none;stroke:#000000;stroke-width:0.600001;stroke-linecap:round"
     d="m 35.217762,25.526552 c 0,0 5.04068,11.92986 2.89514,18.36648 -2.14554,6.43663 -3.15521,7.95113 -3.66004,8.70838 -0.50484,0.75725 0.12621,0.63104 0.63104,1.00967 0.50484,0.37862 1.89313,1.76691 0.12621,2.01933 -1.76692,0.25242 -2.39796,0 -2.39796,0"
     id="path2-0-1-9" />
  <path
     style="fill:none;stroke:#000000;stroke-width:0.600001;stroke-linecap:round"
     d="m 18.351258,40.414182 c 1.0799,8.74261 3.455304,13.40124 3.985604,13.57552 0,0 -1.135877,1.89313 2.39796,2.27175 3.53383,0.37863 5.55316,0.37863 7.06766,0.12621 1.5145,-0.25241 0.78125,-1.8705 -0.37862,-2.77658 -1.0836,-0.84649 1.00967,-0.75725 2.14554,-3.40763"
     id="path3-7-1-0" />
  <path
     style="fill:none;stroke:#000000;stroke-width:0.600001"
     d="m 36.365092,12.911052 c 0,0 0.71394,-2.05258 1.78485,-1.16016 1.07092,0.89243 -0.0892,2.32032 -0.0892,2.32032"
     id="path5-2-1-5" />
  <path
     style="fill:none;stroke:#000000;stroke-width:0.600001;stroke-linecap:round"
     d="m 43.058292,21.924572 c -0.18015,-0.54045 -5.03577,0.24242 -3.21273,3.92668"
     id="path6-3-2-2" />
  <circle
     style="fill:#000000;fill-opacity:1;stroke:none;stroke-width:0.600001"
     id="path7-5-3-2"
     cx="35.449558"
     cy="19.715015"
     r="0.60000002" />
  <ellipse
     style="fill:#000000;fill-opacity:1;stroke:none;stroke-width:0.600001"
     id="path7-0-8-3-7"
     cx="28.295361"
     cy="-7.2552567"
     rx="1.0321681"
     ry="0.51608217"
     transform="rotate(45)" />
  <circle
     style="fill:#000000;fill-opacity:1;stroke:none;stroke-width:0.600001"
     id="path7-6-3-0-3"
     cx="39.708088"
     cy="18.354618"
     r="0.60000002" />
  <path
     style="fill:none;stroke:#000000;stroke-width:0.600001;stroke-linecap:round"
     d="m 34.509473,41.600082 c 0.896466,0.53615 1.863868,0.38178 1.863868,0.38178"
     id="path8-5-0-7" />
  <path
     style="fill:none;stroke:#000000;stroke-width:0.600001;stroke-linecap:round"
     d="m 35.21224,39.782032 c 0.773161,0.51992 1.940656,0.25432 1.940656,0.25432"
     id="path9-6-4-9" />
  <path
     style="fill:#000000;fill-opacity:0.198454;stroke:none;stroke-width:0.0999999;stroke-linecap:round;stroke-dasharray:none;stroke-opacity:1"
     d="m 33.967162,25.227392 c -0.40015,-0.008 -0.24889,0.46507 0.0212,0.55196 0.50261,0.29159 0.99126,0.70582 1.56658,0.81637 0.34379,-0.18389 -0.0366,-0.62501 -0.11765,-0.88017 -0.34385,-0.40105 -0.98122,-0.42915 -1.47012,-0.48816 z"
     id="path24-4-9-9" />
  <path
     style="fill:#000000;fill-opacity:1;stroke:none;stroke-width:0.1;stroke-linecap:round;stroke-linejoin:round;stroke-dasharray:none;stroke-opacity:1"
     d="m 42.400919,22.021312 c -1.047851,0.10531 -2.182786,0.62938 -2.6019,1.65779 -0.214177,0.6757 -0.06853,1.44664 0.27627,2.04666 0.682493,0.004 1.41423,-0.0401 2.020861,-0.38469 0.660144,-0.39633 0.865265,-1.23401 0.815224,-1.95636 -0.02892,-0.44589 0.05937,-0.92334 -0.116533,-1.34571 -0.09108,-0.10715 -0.272479,-0.003 -0.393922,-0.0177 z"
     id="path25-7-6-8" />
  <path
     id="path7-7"
     style="fill:#000000;fill-opacity:0.200351;stroke:none;stroke-width:0.2;stroke-linecap:round;stroke-linejoin:round;stroke-dashoffset:9.52442;stroke-opacity:1"
     d="m 41.159288,16.832072 a 1.6122175,3.6255204 73.508082 0 0 -0.960148,0.22117 1.6122175,3.6255204 73.508082 0 0 -2.691826,1.55702 1.6122175,3.6255204 73.508082 0 0 -3.105753,0.15968 1.6122175,3.6255204 73.508082 0 0 -3.018421,2.57503 1.6122175,3.6255204 73.508082 0 0 3.93361,0.51677 1.6122175,3.6255204 73.508082 0 0 2.692343,-1.55701 1.6122175,3.6255204 73.508082 0 0 3.105236,-0.15917 1.6122175,3.6255204 73.508082 0 0 1.396814,-0.56379 c -0.259643,-1.21219 -0.879424,-2.16529 -1.351855,-2.7497 z m -1.333252,0.83509 a 1.2457787,1.0096818 0 0 1 1.245919,1.00924 1.2457787,1.0096818 0 0 1 -1.245919,1.00976 1.2457787,1.0096818 0 0 1 -1.245919,-1.00976 1.2457787,1.0096818 0 0 1 1.245919,-1.00924 z m -4.376477,1.36012 a 1.2457787,1.0096818 0 0 1 1.245919,1.00976 1.2457787,1.0096818 0 0 1 -1.245919,1.00976 1.2457787,1.0096818 0 0 1 -1.245919,-1.00976 1.2457787,1.0096818 0 0 1 1.245919,-1.00976 z" />
  <path
     id="path7"
     style="fill:#000000;fill-opacity:1;stroke:#000000;stroke-width:0.2;stroke-linecap:round;stroke-linejoin:round;stroke-dashoffset:9.52442;stroke-opacity:1"
     d="m 41.998513,16.423832 a 1.6122175,3.6255204 73.508082 0 0 -1.799373,0.30747 1.6122175,3.6255204 73.508082 0 0 -2.691826,1.55701 1.6122175,3.6255204 73.508082 0 0 -3.105753,0.15968 1.6122175,3.6255204 73.508082 0 0 -3.018421,2.57504 1.6122175,3.6255204 73.508082 0 0 3.93361,0.51676 1.6122175,3.6255204 73.508082 0 0 2.692343,-1.55701 1.6122175,3.6255204 73.508082 0 0 3.105236,-0.15916 1.6122175,3.6255204 73.508082 0 0 3.018938,-2.57556 1.6122175,3.6255204 73.508082 0 0 -2.134754,-0.82423 z m -2.172477,0.92139 a 1.2457787,1.0096818 0 0 1 1.245919,1.00924 1.2457787,1.0096818 0 0 1 -1.245919,1.00975 1.2457787,1.0096818 0 0 1 -1.245919,-1.00975 1.2457787,1.0096818 0 0 1 1.245919,-1.00924 z m -4.376477,1.36012 a 1.2457787,1.0096818 0 0 1 1.245919,1.00976 1.2457787,1.0096818 0 0 1 -1.245919,1.00976 1.2457787,1.0096818 0 0 1 -1.245919,-1.00976 1.2457787,1.0096818 0 0 1 1.245919,-1.00976 z" />
  <path
     style="fill:#000000;fill-opacity:0.242424;stroke:#000000;stroke-width:0.4;stroke-linecap:round;stroke-linejoin:round;stroke-dasharray:none;stroke-dashoffset:9.52442;stroke-opacity:1"
     d="m 30.730973,18.354642 4.710433,19.6182"
     id="path13" />
  <path
     style="display:inline;fill:#fafafa;fill-opacity:1;stroke:none;stroke-width:0.600001;stroke-linecap:round;stroke-dasharray:none;stroke-opacity:1"
     d="m 21.055371,31.971062 c -0.284684,0.23417 -0.279508,0.69907 -0.448664,1.01569 -0.115313,0.39483 -0.340564,0.77784 -0.402511,1.17783 0.240003,0.0831 0.479893,-0.20611 0.694901,-0.30105 0.454981,-0.24844 0.551979,-0.8173 0.392402,-1.27504 -0.07647,-0.1753 -0.05191,-0.52516 -0.236128,-0.61743 z"
     id="path14-1-2-8" />
  <path
     style="fill:none;stroke:#000000;stroke-width:0.600001;stroke-linecap:round"
     d="m 13.755868,39.503522 c 0.676922,0.20308 0.947689,0.94769 0.947689,0.94769"
     id="path10-1-5-0" />
  <path
     style="fill:none;stroke:#000000;stroke-width:0.600001;stroke-linecap:round"
     d="m 15.138133,39.215782 c 0.676915,0.20308 0.94769,0.94769 0.94769,0.94769"
     id="path10-2-7-7-2" />
  <path
     style="fill:none;stroke:#000000;stroke-width:0.600001;stroke-linecap:round"
     d="m 17.424079,39.159382 c 0.530612,0.13118 0.74286,0.61218 0.74286,0.61218"
     id="path10-2-6-92-0-3" />
  <path
     style="fill:none;stroke:#000000;stroke-width:0.600001;stroke-linecap:round"
     d="m 18.378368,39.053232 c 0.530612,0.13118 0.74286,0.61218 0.74286,0.61218"
     id="path10-2-6-9-4-1-9" />
  <path
     style="fill:none;stroke:#000000;stroke-width:0.600001"
     d="m 19.645074,34.697382 c 2.166146,-0.8123 2.301533,-1.15076 1.421534,-3.51998"
     id="path11-8-8-9" />
  <path
     style="fill:#000000;fill-opacity:0.198454;stroke:none;stroke-width:0.0999997;stroke-linecap:round;stroke-dasharray:none;stroke-opacity:1"
     d="m 16.8269,37.070942 c -0.16258,0.10966 -0.283928,0.29356 -0.433757,0.42705 -0.117145,0.1363 -0.274863,0.22928 -0.367478,0.39215 -0.02253,0.14108 0.08765,0.25655 0.1492,0.36318 0.154562,0.2095 0.313259,0.41844 0.489879,0.60122 0.118852,0.0306 0.0886,-0.15003 0.09179,-0.23462 -0.02784,-0.46034 0.05825,-0.92203 0.131664,-1.37638 0.01274,-0.0676 0.02731,-0.17704 -0.06129,-0.1726 z"
     id="path22-9-3-0" />
  <path
     style="fill:#000000;fill-opacity:0.198454;stroke:none;stroke-width:0.0999997;stroke-linecap:round;stroke-dasharray:none;stroke-opacity:1"
     d="m 20.697908,32.399152 c -0.127483,0.05 -0.123228,0.25033 -0.18149,0.36559 -0.150428,0.50379 -0.364626,0.98548 -0.465812,1.50681 0.01001,0.15043 0.17791,0.10292 0.266383,0.0867 0.237545,-0.0819 0.424451,-0.2875 0.642926,-0.41599 0.09157,-0.0447 0.09729,-0.16344 0.06159,-0.25638 -0.08542,-0.41231 -0.145134,-0.83392 -0.245114,-1.24092 -0.01616,-0.0304 -0.04703,-0.0502 -0.07851,-0.0457 z"
     id="path23-6-0-3" />
  <path
     id="path14"
     style="fill:#cbcbcb;fill-opacity:1;stroke:#000000;stroke-width:0.6;stroke-linecap:round;stroke-linejoin:round;stroke-dasharray:none;stroke-dashoffset:9.52442;stroke-opacity:1"
     d="m 25.942332,26.899892 a 5.6223882,3.8777957 70.814529 0 0 -1.882387,0.89884 5.6223882,3.8777957 70.814529 0 0 -1.10377,2.87318 5.8647446,4.5848967 54.210577 0 0 -5.83835,-0.28562 5.8647446,4.5848967 54.210577 0 0 -1.306285,2.43022 5.7372189,4.5245038 50.081979 0 0 -3.988259,0.64791 5.7372189,4.5245038 50.081979 0 0 -0.07181,6.94213 6.6675777,5.2659194 0 0 0 -3.8446474,4.77088 6.6675777,5.2659194 0 0 0 1.197373,3.01117 5.0277727,3.9591367 0 0 0 -1.197363,2.56496 5.0277727,3.9591367 0 0 0 5.0274744,3.95921 5.0277727,3.9591367 0 0 0 0.254163,-0.009 5.0277727,3.9591367 0 0 0 -0.01937,0.24367 5.0277727,3.9591367 0 0 0 5.027474,3.95921 5.0277727,3.9591367 0 0 0 1.545119,-0.19121 17.187915,14.279061 0 0 0 7.890982,1.59351 17.187915,14.279061 0 0 0 6.077187,-0.92222 5.0277727,3.9591367 0 0 0 1.877528,0.28561 5.0277727,3.9591367 0 0 0 5.000056,-3.62515 5.0277727,3.9591367 0 0 0 2.207532,0.40987 5.0277727,3.9591367 0 0 0 5.028276,-3.95922 5.0277727,3.9591367 0 0 0 -1.662105,-2.94094 3.8777957,5.6223882 62.233574 0 0 1.206234,-2.91435 3.8777957,5.6223882 62.233574 0 0 -1.775064,-2.64243 2.1895366,3.4719765 87.117276 0 0 1.585464,-1.15701 2.1895366,3.4719765 87.117276 0 0 -1.533821,-2.69652 3.3662497,4.8888689 38.838684 0 0 -0.119427,-2.43909 3.3662497,4.8888689 38.838684 0 0 -1.524943,-1.3781 2.1895366,3.4719765 50.780393 0 0 0.254157,-1.2611 2.1895366,3.4719765 50.780393 0 0 -3.193504,-1.12392 2.1895366,3.4719765 50.780393 0 0 -0.133933,0.0605 3.8777957,5.6223882 19.185471 0 0 -1.01743,-2.17365 3.8777957,5.6223882 19.185471 0 0 -4.592593,0.16621 3.8777957,5.6223882 19.185471 0 0 -1.054546,-4.19804 3.8777957,5.6223882 19.185471 0 0 -5.100905,0.65195 5.6223882,3.8777957 70.814529 0 0 -3.218513,-1.55077 z" />
  <path
     style="fill:none;fill-opacity:1;stroke:#9a9a9a;stroke-width:0.299999;stroke-linecap:round;stroke-linejoin:round;stroke-dasharray:none;stroke-dashoffset:9.52442;stroke-opacity:1"
     d="m 12.596991,48.528412 c 0,0 -0.413495,2.58432 3.514686,3.1012"
     id="path15" />
  <path
     style="fill:none;fill-opacity:1;stroke:#9a9a9a;stroke-width:0.299999;stroke-linecap:round;stroke-linejoin:round;stroke-dasharray:none;stroke-dashoffset:9.52442;stroke-opacity:1"
     d="m 21.590457,50.079012 c 1.860715,-2.37759 5.168657,-1.03371 6.409138,-0.51687"
     id="path16" />
  <path
     style="fill:none;fill-opacity:1;stroke:#9a9a9a;stroke-width:0.299999;stroke-linecap:round;stroke-linejoin:round;stroke-dasharray:none;stroke-dashoffset:9.52442;stroke-opacity:1"
     d="m 24.795024,53.386952 c 0,0 1.295391,1.13713 3.438773,0.72361"
     id="path17" />
  <path
     style="fill:none;fill-opacity:1;stroke:#9a9a9a;stroke-width:0.299999;stroke-linecap:round;stroke-linejoin:round;stroke-dasharray:none;stroke-dashoffset:9.52442;stroke-opacity:1"
     d="m 16.345879,43.601832 c 1.936636,1.82539 2.866993,1.51527 5.65807,1.1018"
     id="path18" />
  <path
     style="fill:none;fill-opacity:1;stroke:#9a9a9a;stroke-width:0.299999;stroke-linecap:round;stroke-linejoin:round;stroke-dasharray:none;stroke-dashoffset:9.52442;stroke-opacity:1"
     d="m 28.233797,41.292272 c 2.763617,2.07538 5.244575,1.24048 6.691798,0.51689"
     id="path20" />
  <path
     style="fill:none;fill-opacity:1;stroke:#9a9a9a;stroke-width:0.299999;stroke-linecap:round;stroke-linejoin:round;stroke-dasharray:none;stroke-dashoffset:9.52442;stroke-opacity:1"
     d="m 39.784137,45.255002 c 0,0 2.791076,-1.10257 3.92818,0"
     id="path21" />
  <path
     style="fill:none;fill-opacity:1;stroke:#9a9a9a;stroke-width:0.299999;stroke-linecap:round;stroke-linejoin:round;stroke-dasharray:none;stroke-dashoffset:9.52442;stroke-opacity:1"
     d="m 40.507747,50.313212 c 0,0 1.93664,0 2.687705,-0.91615"
     id="path22" />
  <path
     style="fill:none;fill-opacity:1;stroke:#9a9a9a;stroke-width:0.299999;stroke-linecap:round;stroke-linejoin:round;stroke-dasharray:none;stroke-dashoffset:9.52442;stroke-opacity:1"
     d="m 36.166076,52.559972 c 0,0 1.033733,1.08217 2.377581,0.59277"
     id="path23" />
  <path
     style="fill:none;fill-opacity:0.242424;stroke:#9a9a9a;stroke-width:0.299999;stroke-linecap:round;stroke-linejoin:round;stroke-dasharray:none;stroke-dashoffset:9.52442;stroke-opacity:1"
     d="m 16.111677,36.020262 c -1.762924,0.10336 -1.762924,1.44723 -1.762924,1.44723"
     id="path12" />
  <path
     style="fill:none;fill-opacity:0.242424;stroke:#9a9a9a;stroke-width:0.299999;stroke-linecap:round;stroke-linejoin:round;stroke-dasharray:none;stroke-dashoffset:9.52442;stroke-opacity:1"
     d="m 20.763471,34.469652 c 0.592783,-1.24047 2.584329,-1.65395 2.894449,-0.82695"
     id="path24" />
  <path
     style="fill:none;fill-opacity:0.242424;stroke:#9a9a9a;stroke-width:0.299999;stroke-linecap:round;stroke-linejoin:round;stroke-dasharray:none;stroke-dashoffset:9.52442;stroke-opacity:1"
     d="m 27.999595,33.840822 c 2.170839,-1.74876 2.715151,-1.56992 3.580102,-0.78493"
     id="path25" />
  <path
     style="fill:none;fill-opacity:0.242424;stroke:#9a9a9a;stroke-width:0.299999;stroke-linecap:round;stroke-linejoin:round;stroke-dasharray:none;stroke-dashoffset:9.52442;stroke-opacity:1"
     d="m 25.518639,30.644872 c 0.995773,-1.44724 1.934483,-1.34387 2.324818,-0.72364"
     id="path26" />
  <path
     style="fill:none;fill-opacity:0.242424;stroke:#9a9a9a;stroke-width:0.299999;stroke-linecap:round;stroke-linejoin:round;stroke-dasharray:none;stroke-dashoffset:9.52442;stroke-opacity:1"
     d="m 22.210696,37.623612 c 1.603357,1.60124 3.307938,1.34173 4.470349,0.67087"
     id="path27" />
  <path
     style="fill:none;fill-opacity:0.242424;stroke:#9a9a9a;stroke-width:0.299999;stroke-linecap:round;stroke-linejoin:round;stroke-dasharray:none;stroke-dashoffset:9.52442;stroke-opacity:1"
     d="m 16.938663,38.974342 c 0.723613,1.28423 1.681422,1.74145 2.236248,0.87074"
     id="path28" />
  <path
     style="fill:none;fill-opacity:0.242424;stroke:#9a9a9a;stroke-width:0.299999;stroke-linecap:round;stroke-linejoin:round;stroke-dasharray:none;stroke-dashoffset:9.52442;stroke-opacity:1"
     d="m 12.351627,41.943912 c -1.201861,0 -2.5457122,1.42374 -1.925475,2.36738"
     id="path29" />
  <path
     id="path14-1"
     style="fill:#000000;fill-opacity:0.2;stroke:none;stroke-width:0.299999;stroke-linecap:round;stroke-linejoin:round;stroke-dasharray:none;stroke-dashoffset:9.52442;stroke-opacity:1"
     d="m 32.22224,27.140052 a 3.8777957,5.6223882 19.185471 0 0 -1.566094,0.51477 c -0.0092,0.18158 -0.0097,0.28643 -0.0097,0.28643 3.924513,0.72294 3.614682,2.71995 3.098299,4.54418 -0.516383,1.82423 -2.980304,5.45118 -1.696802,4.49334 1.283502,-0.95782 4.118446,-4.38007 5.541437,-2.66907 1.422995,1.71106 -0.539782,3.31454 -0.539782,3.31454 0,0 7.489138,-0.37325 5.473662,2.09055 -2.015477,2.46382 -1.752567,3.31391 -4.440896,3.71797 0,0 6.098601,-0.20131 3.900307,1.80976 -2.198291,2.01107 -2.259163,3.65937 -5.816572,3.47266 0,0 8.683322,2.92116 4.341652,3.38312 -4.341671,0.46195 -2.012281,2.56982 -5.833517,2.56982 -3.821234,0 -8.675686,5.22791 -15.264772,2.29387 0,0 0.51216,1.77804 4.066518,3.10718 a 17.187915,14.279061 0 0 0 4.390872,0.47361 17.187915,14.279061 0 0 0 6.077185,-0.92222 5.0277727,3.9591367 0 0 0 1.877536,0.28562 5.0277727,3.9591367 0 0 0 5.000043,-3.62518 5.0277727,3.9591367 0 0 0 2.207538,0.40989 5.0277727,3.9591367 0 0 0 5.028281,-3.95922 5.0277727,3.9591367 0 0 0 -1.662107,-2.94095 3.8777957,5.6223882 62.233574 0 0 1.206237,-2.91433 3.8777957,5.6223882 62.233574 0 0 -1.775066,-2.64244 2.1895366,3.4719765 87.117276 0 0 1.585458,-1.15703 2.1895366,3.4719765 87.117276 0 0 -1.53382,-2.69647 3.3662497,4.8888689 38.838684 0 0 -0.119412,-2.43911 3.3662497,4.8888689 38.838684 0 0 -1.524945,-1.37811 2.1895366,3.4719765 50.780393 0 0 0.254159,-1.2611 2.1895366,3.4719765 50.780393 0 0 -3.193508,-1.12394 2.1895366,3.4719765 50.780393 0 0 -0.133933,0.0606 3.8777957,5.6223882 19.185471 0 0 -1.017436,-2.17367 3.8777957,5.6223882 19.185471 0 0 -4.592584,0.16623 3.8777957,5.6223882 19.185471 0 0 -1.054551,-4.19805 3.8777957,5.6223882 19.185471 0 0 -2.273699,-0.89318 z" />
  <ellipse
     style="fill:#000000;fill-opacity:0.295455;stroke:none;stroke-width:0.203481;stroke-linecap:round;stroke-linejoin:round;stroke-dashoffset:9.52442"
     id="path31-8-6"
     cx="71.800583"
     cy="0.096670859"
     rx="2.4746323"
     ry="1.4832985"
     transform="matrix(0.99955008,0.02999386,0.22906459,0.97341123,0,0)" />
  <ellipse
     style="fill:#cbcbcb;fill-opacity:1;stroke:#000000;stroke-width:0.4;stroke-linecap:round;stroke-linejoin:round;stroke-dasharray:none;stroke-dashoffset:9.52442;stroke-opacity:1"
     id="path31"
     cx="69.826622"
     cy="-10.934983"
     rx="11.750789"
     ry="4.3538775"
     transform="rotate(13.658755)" />
  <ellipse
     style="fill:#000000;fill-opacity:0.242424;stroke:none;stroke-width:0.2;stroke-linecap:round;stroke-linejoin:round;stroke-dashoffset:9.52442"
     id="path31-8"
     cx="69.517593"
     cy="-10.345949"
     rx="8.4462538"
     ry="3.1175144"
     transform="matrix(0.97195223,0.23517838,-0.23710249,0.97148464,0,0)" />
  <ellipse
     style="fill:#000000;fill-opacity:1;stroke:#000000;stroke-width:0.2;stroke-linecap:round;stroke-linejoin:round;stroke-dashoffset:9.52442;stroke-opacity:1"
     id="path32"
     cx="64.207542"
     cy="17.271374"
     rx="0.46815887"
     ry="0.48323402" />
  <ellipse
     style="fill:#000000;fill-opacity:1;stroke:#000000;stroke-width:0.2;stroke-linecap:round;stroke-linejoin:round;stroke-dashoffset:9.52442;stroke-opacity:1"
     id="path32-1"
     cx="66.432907"
     cy="0.17451698"
     rx="0.46815887"
     ry="1.0333207"
     transform="rotate(16.114997)" />
  <path
     style="fill:none;fill-opacity:0.242424;stroke:#000000;stroke-width:0.2;stroke-linecap:round;stroke-linejoin:round;stroke-dashoffset:9.52442;stroke-opacity:1"
     d="m 63.140408,19.135342 c 0,0 -0.899136,-0.6086 -1.06299,-0.3043 -0.163856,0.3043 0.280895,1.17039 0.07022,1.12358 -0.210672,-0.0468 -0.514974,-0.24635 -0.514974,-0.24635"
     id="path33" />
  <path
     style="fill:none;fill-opacity:0.242424;stroke:#000000;stroke-width:0.2;stroke-linecap:round;stroke-linejoin:round;stroke-dashoffset:9.52442;stroke-opacity:1"
     d="m 63.77409,19.351032 c 0,0 -0.947618,0.22193 -0.92421,0.70538 0.02341,0.48342 0.140446,1.11543 -0.07022,0.99837 -0.210672,-0.11702 -0.561793,-0.0936 -0.561793,-0.0936"
     id="path34" />
  <path
     style="fill:none;fill-opacity:0.242424;stroke:#000000;stroke-width:0.2;stroke-linecap:round;stroke-linejoin:round;stroke-dashoffset:9.52442;stroke-opacity:1"
     d="m 64.407775,18.105392 c 0,0 0.75949,0.16386 0.993569,-0.11705 0.23408,-0.28088 0.608608,-0.71696 0.608608,-0.71696"
     id="path35" />
  <path
     style="fill:none;fill-opacity:0.242424;stroke:#000000;stroke-width:0.2;stroke-linecap:round;stroke-linejoin:round;stroke-dashoffset:9.52442;stroke-opacity:1"
     d="m 63.639383,17.854602 c 0,0 -0.69022,-0.22979 -0.643405,-0.58322 0.04682,-0.3534 0.07946,-0.53285 -0.101431,-0.83715"
     id="path36" />
  <g
     id="g40"
     transform="matrix(0.81954501,0,0,0.82407684,11.033816,-276.68903)"
     style="stroke-width:1.21683">
    <ellipse
       style="fill:#000000;fill-opacity:1;stroke:#000000;stroke-width:0.243366;stroke-linecap:round;stroke-linejoin:round;stroke-dashoffset:9.52442;stroke-opacity:1"
       id="path32-2"
       cx="70.915398"
       cy="346.33618"
       rx="0.46815887"
       ry="0.48323402" />
    <ellipse
       style="fill:#000000;fill-opacity:1;stroke:#000000;stroke-width:0.243366;stroke-linecap:round;stroke-linejoin:round;stroke-dashoffset:9.52442;stroke-opacity:1"
       id="path32-1-5"
       cx="56.179291"
       cy="350.26761"
       rx="0.46815887"
       ry="1.0333207"
       transform="rotate(-2.3479634)" />
    <path
       style="fill:none;fill-opacity:0.242424;stroke:#000000;stroke-width:0.243366;stroke-linecap:round;stroke-linejoin:round;stroke-dashoffset:9.52442;stroke-opacity:1"
       d="m 70.91059,348.29376 c 0,0 0.899136,-0.6086 1.06299,-0.3043 0.163856,0.3043 -0.280895,1.17039 -0.07022,1.12358 0.210672,-0.0468 0.514974,-0.24635 0.514974,-0.24635"
       id="path33-2" />
    <path
       style="fill:none;fill-opacity:0.242424;stroke:#000000;stroke-width:0.243366;stroke-linecap:round;stroke-linejoin:round;stroke-dashoffset:9.52442;stroke-opacity:1"
       d="m 70.239887,347.95464 c 0,0 0.472393,0.85093 0.09862,1.15845 -0.373749,0.3075 -0.920455,0.6455 -0.692204,0.72286 0.228226,0.0774 0.446817,0.35317 0.446817,0.35317"
       id="path34-2" />
    <path
       style="fill:none;fill-opacity:0.242424;stroke:#000000;stroke-width:0.243366;stroke-linecap:round;stroke-linejoin:round;stroke-dashoffset:9.52442;stroke-opacity:1"
       d="m 70.682471,347.11793 c 0,0 0.75949,0.16386 0.993569,-0.11705 0.23408,-0.28088 0.608608,-0.71696 0.608608,-0.71696"
       id="path35-7" />
    <path
       style="fill:none;fill-opacity:0.242424;stroke:#000000;stroke-width:0.243366;stroke-linecap:round;stroke-linejoin:round;stroke-dashoffset:9.52442;stroke-opacity:1"
       d="m 70.247242,346.81941 c 0,0 -0.69022,-0.22979 -0.643405,-0.58322 0.04682,-0.3534 0.07946,-0.53285 -0.101431,-0.83715"
       id="path36-1" />
  </g>
  <path
     id="path37"
     style="fill:url(#linearGradient40);fill-opacity:1;stroke:none;stroke-width:0.2;stroke-linecap:round;stroke-linejoin:round;stroke-dashoffset:9.52442;stroke-opacity:0"
     d="m 69.97724,5.8194615 a 3.5983338,1.217213 16.480091 0 0 -3.795644,0.14623 l -0.09564,-0.0283 -10.448949,18.0656305 0.09613,0.0284 a 8.4928045,2.0920577 16.480091 0 0 7.550048,4.4156 8.4928045,2.0920577 16.480091 0 0 8.737685,0.40289 l 0.09564,0.0283 1.062034,-20.8426205 -0.09613,-0.0284 a 3.5983338,1.217213 16.480091 0 0 -3.105175,-2.18774 z" />
  <path
     style="fill:#7c7c7c;fill-opacity:1;stroke:#000000;stroke-width:0.4;stroke-linecap:round;stroke-linejoin:round;stroke-dasharray:none;stroke-dashoffset:9.52442;stroke-opacity:0.502525"
     d="m 48.664665,33.990822 c 0,0 -0.842687,1.87944 -2.153531,1.87944"
     id="path40" />
  <path
     style="fill:#7c7c7c;fill-opacity:1;stroke:#000000;stroke-width:0.4;stroke-linecap:round;stroke-linejoin:round;stroke-dasharray:none;stroke-dashoffset:9.52442;stroke-opacity:0.502525"
     d="m 51.754514,36.070262 c 0,0 -0.280895,1.3072 0.56179,2.10256"
     id="path41" />
  <path
     style="fill:#7c7c7c;fill-opacity:1;stroke:#000000;stroke-width:0.4;stroke-linecap:round;stroke-linejoin:round;stroke-dasharray:none;stroke-dashoffset:9.52442;stroke-opacity:0.502525"
     d="m 49.975509,42.302702 c 1.531458,1.30498 2.22023,2.74524 1.531458,3.77519"
     id="path42" />
  <path
     style="fill:#7c7c7c;fill-opacity:1;stroke:#000000;stroke-width:0.4;stroke-linecap:round;stroke-linejoin:round;stroke-dasharray:none;stroke-dashoffset:9.52442;stroke-opacity:0.502525"
     d="m 7.6068236,39.203512 c 0,0 0.234385,-2.44126 1.077071,-3.33325"
     id="path43" />
</svg>
