<?xml version="1.0" encoding="UTF-8" standalone="no"?>
<!-- Created with Inkscape (http://www.inkscape.org/) -->

<svg
   width="89.999992mm"
   height="66.5mm"
   viewBox="0 0 89.999988 66.499991"
   version="1.1"
   id="svg1"
   xmlns="http://www.w3.org/2000/svg"
   xmlns:svg="http://www.w3.org/2000/svg">
  <defs
     id="defs1" />
  <ellipse
     style="fill:#1a1a1a;fill-opacity:0.1;stroke:none;stroke-width:0.300001;stroke-linecap:round;stroke-linejoin:round;stroke-dasharray:none;stroke-dashoffset:9.52442;stroke-opacity:1"
     id="path10-7"
     cx="43.96896"
     cy="59.624527"
     rx="43.015903"
     ry="6.2802587" />
  <ellipse
     style="fill:#1a1a1a;fill-opacity:0.29646;stroke:none;stroke-width:0.3;stroke-linecap:round;stroke-linejoin:round;stroke-dasharray:none;stroke-dashoffset:9.52442;stroke-opacity:1"
     id="path10-7-2"
     cx="54.95697"
     cy="58.109451"
     rx="22.152184"
     ry="5.3411584" />
  <ellipse
     style="fill:#1a1a1a;fill-opacity:0.29646;stroke:none;stroke-width:0.3;stroke-linecap:round;stroke-linejoin:round;stroke-dasharray:none;stroke-dashoffset:9.52442;stroke-opacity:1"
     id="path10-7-2-7"
     cx="18.412661"
     cy="59.838547"
     rx="10.531345"
     ry="3.4519918" />
  <path
     style="display:inline;fill:#fafafa;fill-opacity:1;stroke:none;stroke-width:0.600001;stroke-linecap:round;stroke-dasharray:none;stroke-opacity:1"
     d="m 23.132312,17.326245 c -1.58815,0.007 -3.33944,0.11283 -4.56677,1.25544 -0.49959,0.35209 -0.85684,0.94049 -1.40988,1.19299 -0.49803,-0.23794 -0.45408,-0.94498 -0.93043,-1.23389 -0.59631,-0.5417 -1.61199,-1.13824 -2.33757,-0.4945 -0.57482,0.43599 -0.63611,1.25087 -0.26487,1.83855 0.29539,0.76218 0.9577,1.29513 1.37605,1.95828 -3.300091,3.95857 -6.1756228,8.38535 -7.7924458,13.3126 -0.719416,2.14095 -1.424393,5.96188 -1.365928,8.22368 -0.06956,3.36754 1.514231,4.81117 3.115423,7.80069 0.528246,0.8672 0.411055,2.24547 1.3095988,2.76987 -0.4163058,0.78311 1.132207,3.4368 1.971882,4.53327 0.0793,0.25212 0.58371,0.12625 0.39758,0.45162 -0.37113,0.52212 -0.1518,1.27612 0.44134,1.51817 1.38194,0.62421 2.95124,0.55773 4.43222,0.70371 0.57229,0.0158 1.16512,0.0788 1.72605,0.0113 -0.12986,-0.48907 -0.81393,-0.56223 -1.04442,-0.99892 -0.0697,-0.40982 0.4926,-0.28449 0.68553,-0.11191 0.48553,0.23376 0.70567,0.75513 1.08399,1.09027 0.3495,0.0558 0.83592,0.14879 1.12181,-0.10493 0.0447,-0.44891 -0.47116,-0.77655 -0.81521,-0.97627 -0.40107,-0.0197 -0.28739,-0.72324 0.11643,-0.53127 0.69628,0.20025 1.09258,0.86511 1.43573,1.44252 0.41259,0.11534 0.64999,-0.4735 0.47811,-0.7983 -0.18755,-0.77768 -0.90906,-1.19609 -1.36653,-1.78433 -0.25308,-0.66129 0.5666,-1.0511 0.95483,-1.43974 0.63081,-0.52288 1.04647,-1.23158 1.44113,-1.93127 0.14109,-0.27126 0.59225,-0.13142 0.46992,0.18005 -0.43617,1.16298 -1.34025,2.0887 -2.32624,2.8176 0.16894,0.4773 0.73301,0.80521 1.00973,1.26718 0.17945,0.17003 0.32951,0.86559 0.51579,0.3655 0.16191,-0.4865 0.70053,-0.0334 0.98391,0.0795 0.22013,0.16665 0.36417,-0.0611 0.26163,-0.26546 0.31578,-0.36619 0.88856,0.0385 1.15022,0.31095 0.0846,0.18785 0.52871,0.32415 0.39113,-0.002 -0.33949,-0.69115 -1.01336,-1.07948 -1.62345,-1.49272 -0.34027,-0.46444 0.19147,-1.01052 0.37876,-1.43399 1.45666,-2.61729 2.41033,-5.47845 3.3541,-8.31021 0.69068,-2.30846 0.47315,-4.77044 0.17486,-7.12572 -0.58212,-3.66826 -1.68685,-7.24373 -3.05276,-10.69042 -0.47822,-0.31751 -1.18632,-0.12754 -1.66268,-0.44272 -0.17483,-0.33655 0.21488,-0.46449 0.47254,-0.34373 1.82408,0.15268 3.64335,0.56985 5.47379,0.62609 0.13423,-0.31472 -0.13414,-0.6873 -0.0852,-1.03169 -0.16336,-1.30996 0.9676,-2.31625 2.13643,-2.66508 0.42767,-0.19767 0.98603,-0.16567 1.3498,-0.42949 -0.60476,-3.52259 -2.9935,-6.69636 -6.18774,-8.28981 -1.05495,-0.47369 -2.20486,-0.87833 -3.37815,-0.82096 z m -8.45541,1.70642 c 0.60908,0.1143 1.18551,0.67658 1.24958,1.30134 -0.13294,0.46568 -0.69385,0.20453 -0.92956,-0.0328 -0.35563,-0.26183 -0.81801,-0.79925 -0.51837,-1.24173 0.0626,-0.0248 0.13155,-0.0312 0.19835,-0.0268 z m 15.05484,3.7041 c 0.43806,0.0259 0.77344,0.59346 0.37196,0.91421 -0.3939,0.52236 -1.34373,-0.21676 -0.83961,-0.69476 0.11886,-0.12701 0.28808,-0.22848 0.46765,-0.21945 z m -4.23589,1.34805 c 0.64613,0.017 0.67472,1.09271 0.0209,1.08364 -0.79121,0.12823 -0.80367,-1.17814 -0.0209,-1.08364 z"
     id="path13-8-4-27" />
  <path
     style="display:inline;fill:#fafafa;fill-opacity:1;stroke:none;stroke-width:0.600001;stroke-linecap:round;stroke-dasharray:none;stroke-opacity:1"
     d="m 27.593928,16.687775 c -0.328004,0.16366 -0.692653,0.4862 -0.770591,0.85322 0.308856,0.33973 0.763516,0.63846 1.218025,0.72248 0.404659,-0.23755 0.343691,-0.94914 0.02527,-1.25289 -0.136398,-0.12246 -0.27962,-0.30036 -0.472708,-0.32281 z"
     id="path15-1-3-3" />
  <path
     style="display:inline;fill:#fafafa;fill-opacity:1;stroke:none;stroke-width:0.600001;stroke-linecap:round;stroke-dasharray:none;stroke-opacity:1"
     d="m 28.039968,50.208035 c -0.375317,0.30872 -0.368494,0.92162 -0.591503,1.33904 -0.152024,0.52054 -0.448987,1.02548 -0.530656,1.55281 0.316412,0.1096 0.632674,-0.27173 0.916133,-0.39689 0.599831,-0.32754 0.72771,-1.0775 0.517329,-1.68097 -0.100814,-0.2311 -0.06843,-0.69235 -0.311303,-0.81399 z"
     id="path14-1-2-7" />
  <path
     style="fill:none;stroke:#000000;stroke-width:0.600001;stroke-linecap:round;stroke-linejoin:round"
     d="m 13.340602,38.470375 c -0.75725,11.10633 1.079726,8.03267 1.205936,10.17821 0.12621,2.14555 -4.8943488,1.87803 -5.7778088,1.62561 -0.883457,-0.25241 -3.37925,-0.57128 -2.874417,-9.9107 0.504833,-9.33941 8.7683098,-18.54497 8.7683098,-18.54497 0,0 -2.45789,-2.2794 -1.19581,-3.7939 1.26209,-1.5145 4.03867,0.63104 3.53384,1.64071 1.33037,-1.30088 2.23692,-2.68197 6.058,-2.65038 4.47088,0.037 9.087,4.16488 9.97046,9.59184 0.88346,5.42695 -2.01934,4.5435 -9.46563,3.53383"
     id="path1-3-2-9" />
  <path
     style="fill:none;stroke:#000000;stroke-width:0.600001;stroke-linecap:round"
     d="m 25.211842,30.452975 c 0,0 5.04068,11.92986 2.89514,18.36648 -2.14554,6.43663 -3.15521,7.95113 -3.66004,8.70838 -0.50484,0.75725 0.12621,0.63104 0.63104,1.00967 0.50484,0.37862 1.89313,1.76691 0.12621,2.01933 -1.76692,0.25242 -2.39796,0 -2.39796,0"
     id="path2-0-1-02" />
  <path
     style="fill:none;stroke:#000000;stroke-width:0.600001;stroke-linecap:round"
     d="m 9.2560492,50.741855 c -0.02308,3.43096 2.5445928,7.99999 3.0748928,8.17427 0,0 -1.135877,1.89313 2.39796,2.27175 3.53383,0.37863 5.55316,0.37863 7.06766,0.12621 1.5145,-0.25241 0.78125,-1.8705 -0.37862,-2.77658 -1.0836,-0.84649 1.00967,-0.75725 2.14554,-3.40763"
     id="path3-7-1-3" />
  <path
     style="fill:none;stroke:#000000;stroke-width:0.600001"
     d="m 26.359172,17.837475 c 0,0 0.71394,-2.05258 1.78485,-1.16016 1.07092,0.89243 -0.0892,2.32032 -0.0892,2.32032"
     id="path5-2-1-9" />
  <path
     style="fill:none;stroke:#000000;stroke-width:0.600001;stroke-linecap:round"
     d="m 33.052372,26.850995 c -0.18015,-0.54045 -5.03577,0.24242 -3.21273,3.92668"
     id="path6-3-2-9" />
  <circle
     style="fill:#000000;fill-opacity:1;stroke:none;stroke-width:0.600001"
     id="path7-5-3-7"
     cx="25.443636"
     cy="24.641438"
     r="0.60000002" />
  <ellipse
     style="fill:#000000;fill-opacity:1;stroke:none;stroke-width:0.600001"
     id="path7-0-8-3-03"
     cx="24.703613"
     cy="3.3035176"
     rx="1.0321681"
     ry="0.51608217"
     transform="rotate(45)" />
  <circle
     style="fill:#000000;fill-opacity:1;stroke:none;stroke-width:0.600001"
     id="path7-6-3-0-9"
     cx="29.702166"
     cy="23.281086"
     r="0.60000002" />
  <path
     style="fill:none;stroke:#000000;stroke-width:0.600001;stroke-linecap:round"
     d="m 18.416562,60.138555 c 0.89243,0.26773 1.2494,1.2494 1.2494,1.2494"
     id="path10-1-5-57" />
  <path
     style="fill:none;stroke:#000000;stroke-width:0.600001;stroke-linecap:round"
     d="m 20.238892,59.759215 c 0.89242,0.26773 1.2494,1.2494 1.2494,1.2494"
     id="path10-2-7-7-62" />
  <path
     style="fill:none;stroke:#000000;stroke-width:0.600001;stroke-linecap:round"
     d="m 23.252602,59.684855 c 0.69954,0.17295 0.97936,0.80708 0.97936,0.80708"
     id="path10-2-6-92-0-7" />
  <path
     style="fill:none;stroke:#000000;stroke-width:0.600001;stroke-linecap:round"
     d="m 24.510702,59.544905 c 0.69954,0.17295 0.97936,0.80708 0.97936,0.80708"
     id="path10-2-6-9-4-1-03" />
  <path
     style="fill:#000000;fill-opacity:0.198454;stroke:none;stroke-width:0.0999998;stroke-linecap:round;stroke-dasharray:none;stroke-opacity:1"
     d="m 22.465302,56.931525 c -0.21434,0.14458 -0.37432,0.38702 -0.57185,0.56301 -0.15444,0.17969 -0.36237,0.30228 -0.48447,0.517 -0.0297,0.186 0.11555,0.33823 0.1967,0.4788 0.20377,0.2762 0.41299,0.55166 0.64584,0.79263 0.15669,0.0404 0.11681,-0.1978 0.12101,-0.30932 -0.0367,-0.60689 0.0768,-1.21557 0.17358,-1.81456 0.0168,-0.0891 0.036,-0.23341 -0.0808,-0.22756 z"
     id="path22-9-3-72" />
  <path
     style="fill:#000000;fill-opacity:0.198454;stroke:none;stroke-width:0.0999999;stroke-linecap:round;stroke-dasharray:none;stroke-opacity:1"
     d="m 23.961242,30.153815 c -0.40015,-0.008 -0.24889,0.46507 0.0212,0.55196 0.50261,0.29159 0.99126,0.70582 1.56658,0.81637 0.34379,-0.18389 -0.0366,-0.62501 -0.11765,-0.88017 -0.34385,-0.40105 -0.98122,-0.42915 -1.47012,-0.48816 z"
     id="path24-4-9-5" />
  <path
     style="fill:#000000;fill-opacity:1;stroke:none;stroke-width:0.1;stroke-linecap:round;stroke-linejoin:round;stroke-dasharray:none;stroke-opacity:1"
     d="m 32.394999,26.947735 c -1.047851,0.10531 -2.182786,0.62938 -2.6019,1.65779 -0.214177,0.6757 -0.06853,1.44664 0.27627,2.04666 0.682493,0.004 1.41423,-0.0401 2.020861,-0.38469 0.660144,-0.39633 0.865265,-1.23401 0.815224,-1.95636 -0.02892,-0.44589 0.05937,-0.92334 -0.116533,-1.34571 -0.09108,-0.10715 -0.272479,-0.003 -0.393922,-0.0177 z"
     id="path25-7-6-5" />
  <path
     style="fill:#7c7c7c;fill-opacity:1;stroke:#000000;stroke-width:0.4;stroke-linecap:round;stroke-linejoin:round;stroke-dashoffset:9.52442;stroke-opacity:1"
     d="m 36.323391,56.594385 3.142697,-5.81565 c 0,0 7.542472,-6.7328 8.642416,-6.7328 1.099942,0 6.285391,-2.86363 6.285391,-2.86363 0,0 5.656855,2.86363 7.071069,2.86363 1.414214,0 5.971125,5.18086 5.971125,5.18086 0,0 4.399774,3.61199 3.6141,3.92626 -0.785673,0.31427 1.571348,3.44133 1.571348,3.44133 0,0 1.099944,2.43523 -0.785674,2.76844 -1.885619,0.33322 -5.028313,2.31524 -5.028313,2.31524 0,0 -7.699608,-1.98202 -9.270958,-1.98202 -1.571347,0 -7.071066,0.57917 -7.071066,0.57917 l -7.699608,-0.82124 z"
     id="path73" />
  <path
     id="path71"
     style="fill:#cbcbcb;fill-opacity:1;stroke:#000000;stroke-width:0.4;stroke-linecap:round;stroke-linejoin:round;stroke-dashoffset:9.52442;stroke-opacity:1"
     d="M 2.4823252,2.2782146 V 50.771645 H 46.567512 V 2.2782146 Z m 2.204354,2.26768 H 44.363162 V 44.222835 H 4.6866792 Z" />
  <path
     style="fill:#ffffff;fill-opacity:1;stroke:#000000;stroke-width:0.6;stroke-linecap:round;stroke-linejoin:round;stroke-dasharray:none;stroke-dashoffset:9.52442;stroke-opacity:1"
     d="m 10.592296,49.831485 c 0,0 -2.3333328,-0.34145 -2.5555538,0.38888 -0.222224,0.73033 0.888889,1.54562 1.777777,1.54562 0.8888888,0 3.2222208,0.49009 3.9999998,0 0.777777,-0.49006 1.666666,-2.37895 -0.444444,-2.26782 -2.111113,0.1111 -0.888889,0.49998 -2.777779,0.33332 z"
     id="path74" />
  <path
     style="fill:#ffffff;fill-opacity:1;stroke:#000000;stroke-width:0.6;stroke-linecap:round;stroke-linejoin:round;stroke-dasharray:none;stroke-dashoffset:9.52442;stroke-opacity:1"
     d="m 30.785272,49.831485 c 0,0 2.333333,-0.34145 2.555554,0.38888 0.222224,0.73033 -0.888889,1.54562 -1.777777,1.54562 -0.888889,0 -3.222221,0.49009 -4,0 -0.777777,-0.49006 -1.666666,-2.37895 0.444444,-2.26782 2.111113,0.1111 0.888889,0.49998 2.777779,0.33332 z"
     id="path74-2" />
  <path
     style="fill:#000000;fill-opacity:0.2;stroke:none;stroke-width:0.4;stroke-linecap:round;stroke-linejoin:round;stroke-dashoffset:9.52442;stroke-opacity:1"
     d="m 37.974736,55.788525 1.886074,-3.49473 2.199434,4.03627 -3.771238,1.08792 -1.17851,-0.48665 z"
     id="path79" />
  <path
     style="fill:#000000;fill-opacity:0.2;stroke:none;stroke-width:0.4;stroke-linecap:round;stroke-linejoin:round;stroke-dashoffset:9.52442;stroke-opacity:1"
     d="m 48.26707,53.938975 3.466632,4.17047 0.226036,1.90127 5.73542,-0.38619 -2.357022,-4.24928 -7.542471,-4.4036 z"
     id="path80" />
  <path
     style="fill:#000000;fill-opacity:0.2;stroke:none;stroke-width:0.4;stroke-linecap:round;stroke-linejoin:round;stroke-dashoffset:9.52442;stroke-opacity:1"
     d="m 60.973615,45.561005 -0.79126,9.29489 4.819574,1.53066 h 3.299833 l -4.798198,-2.15339 z"
     id="path81" />
</svg>
